<?xml version="1.0" encoding="utf-8"?>
<!-- Generator: Adobe Illustrator 24.3.0, SVG Export Plug-In . SVG Version: 6.00 Build 0)  -->
<svg version="1.0" id="katman_1" xmlns="http://www.w3.org/2000/svg" xmlns:xlink="http://www.w3.org/1999/xlink" x="0px" y="0px"
	 viewBox="0 0 20.5 23" style="enable-background:new 0 0 20.5 23;" xml:space="preserve">
<style type="text/css">
	.st0{fill:#FFE500;}
	.st1{fill:#EBCB00;}
	.st2{fill:#FDF28E;}
	.st3{opacity:0.15;fill:#45413C;enable-background:new    ;}
	.st4{fill:none;stroke:#45413C;stroke-width:0.5;stroke-linecap:round;stroke-linejoin:round;}
	.st5{fill:#F7A856;}
</style>
<path class="st0" d="M0.25,10.25c0,2.65,1.05,5.2,2.93,7.07c1.88,1.88,4.42,2.93,7.07,2.93c2.65,0,5.2-1.05,7.07-2.93
	c1.88-1.88,2.93-4.42,2.93-7.07c0-2.65-1.05-5.2-2.93-7.07c-1.88-1.88-4.42-2.93-7.07-2.93c-2.65,0-5.2,1.05-7.07,2.93
	C1.3,5.05,0.25,7.6,0.25,10.25z"/>
<path class="st1" d="M10.25,0.25c-1.98,0-3.91,0.59-5.56,1.69C3.05,3.03,1.77,4.6,1.01,6.42c-0.76,1.83-0.95,3.84-0.57,5.78
	s1.34,3.72,2.74,5.12c1.4,1.4,3.18,2.35,5.12,2.74c1.94,0.39,3.95,0.19,5.78-0.57c1.83-0.76,3.39-2.04,4.49-3.68
	c1.1-1.64,1.69-3.58,1.69-5.56c0-2.65-1.05-5.2-2.93-7.07C15.45,1.3,12.9,0.25,10.25,0.25z M10.25,18.75c-1.8,0-3.57-0.54-5.07-1.54
	c-1.5-1-2.67-2.43-3.36-4.1S0.95,9.61,1.3,7.84c0.35-1.77,1.22-3.4,2.5-4.67c1.28-1.28,2.9-2.15,4.67-2.5
	c1.77-0.35,3.6-0.17,5.27,0.52c1.67,0.69,3.09,1.86,4.1,3.36c1,1.5,1.54,3.26,1.54,5.07c0,2.42-0.96,4.74-2.67,6.45
	C14.99,17.79,12.67,18.75,10.25,18.75z"/>
<path class="st2" d="M7.25,2.25c0,0.2,0.32,0.39,0.88,0.53C8.69,2.92,9.45,3,10.25,3s1.56-0.08,2.12-0.22s0.88-0.33,0.88-0.53
	s-0.32-0.39-0.88-0.53S11.05,1.5,10.25,1.5S8.69,1.58,8.13,1.72C7.57,1.86,7.25,2.05,7.25,2.25z"/>
<path class="st3" d="M2.25,22.25c0,0.2,0.84,0.39,2.34,0.53C6.09,22.92,8.13,23,10.25,23s4.16-0.08,5.66-0.22
	c1.5-0.14,2.34-0.33,2.34-0.53s-0.84-0.39-2.34-0.53c-1.5-0.14-3.54-0.22-5.66-0.22s-4.16,0.08-5.66,0.22
	C3.09,21.86,2.25,22.05,2.25,22.25z"/>
<path class="st4" d="M0.25,10.25c0,2.65,1.05,5.2,2.93,7.07c1.88,1.88,4.42,2.93,7.07,2.93c2.65,0,5.2-1.05,7.07-2.93
	c1.88-1.88,2.93-4.42,2.93-7.07c0-2.65-1.05-5.2-2.93-7.07c-1.88-1.88-4.42-2.93-7.07-2.93c-2.65,0-5.2,1.05-7.07,2.93
	C1.3,5.05,0.25,7.6,0.25,10.25L0.25,10.25z"/>
<path class="st4" d="M9.75,13.64c0.15-0.09,0.32-0.13,0.5-0.14c0.27,0,0.52,0.11,0.71,0.29s0.29,0.44,0.29,0.71
	s-0.11,0.52-0.29,0.71s-0.44,0.29-0.71,0.29c0.27,0,0.52,0.11,0.71,0.29s0.29,0.44,0.29,0.71s-0.11,0.52-0.29,0.71
	s-0.44,0.29-0.71,0.29c-0.18,0-0.35-0.05-0.5-0.14"/>
<path class="st4" d="M6.5,10.5H3.75"/>
<path class="st5" d="M3,12.75c0,0.41,0.56,0.75,1.25,0.75s1.25-0.34,1.25-0.75S4.94,12,4.25,12S3,12.34,3,12.75z"/>
<path class="st4" d="M4.75,8.08C5.34,7.99,5.91,7.8,6.44,7.53C6.97,7.27,7.45,6.92,7.88,6.5"/>
<path class="st4" d="M14,10.5h2.75"/>
<path class="st5" d="M17.5,12.75c0,0.41-0.56,0.75-1.25,0.75S15,13.16,15,12.75S15.56,12,16.25,12S17.5,12.34,17.5,12.75z"/>
<path class="st4" d="M15.75,8.08c-0.59-0.09-1.16-0.28-1.68-0.55c-0.53-0.26-1.02-0.61-1.44-1.03"/>
</svg>
